HIERARCHY
ROOT Hips
{
	OFFSET 0.00000 0.00000 0.00000
	CHANNELS 6 Xposition Yposition Zposition Zrotation Yrotation Xrotation 
	JOINT LHipJoint
	{
		OFFSET 0 0 0
		CHANNELS 3 Zrotation Yrotation Xrotation
		JOINT LeftHip
		{
			OFFSET 1.48831 -1.59570 0.95625
			CHANNELS 3 Zrotation Yrotation Xrotation
			JOINT LeftKnee
			{
				OFFSET 2.20856 -6.06797 0.00000
				CHANNELS 3 Zrotation Yrotation Xrotation
				JOINT LeftAnkle
				{
					OFFSET 2.62924 -7.22379 0.00000
					CHANNELS 3 Zrotation Yrotation Xrotation
					JOINT LeftToe
					{
						OFFSET 0.16802 -0.46163 2.41673
						CHANNELS 3 Zrotation Yrotation Xrotation
						End Site
						{
							OFFSET 0.00000 -0.00000 1.23760
						}
					}
				}
			}
		}
	}
	JOINT RHipJoint
	{
		OFFSET 0 0 0
		CHANNELS 3 Zrotation Yrotation Xrotation
		JOINT RightHip
		{
			OFFSET -1.56796 -1.59570 0.95625
			CHANNELS 3 Zrotation Yrotation Xrotation
			JOINT RightKnee
			{
				OFFSET -2.29239 -6.29829 0.00000
				CHANNELS 3 Zrotation Yrotation Xrotation
				JOINT RightAnkle
				{
					OFFSET -2.66963 -7.33475 0.00000
					CHANNELS 3 Zrotation Yrotation Xrotation
					JOINT RightToe
					{
						OFFSET -0.18185 -0.49964 2.34359
						CHANNELS 3 Zrotation Yrotation Xrotation
						End Site
						{
							OFFSET -0.00000 -0.00000 1.20477
						}
					}
				}
			}
		}
	}
	JOINT lowerback
	{
		OFFSET 0 0 0
		CHANNELS 3 Zrotation Yrotation Xrotation
		JOINT Chest
		{
			OFFSET 0.03505 2.15832 -0.34324
			CHANNELS 3 Zrotation Yrotation Xrotation
			JOINT Chest2
			{
				OFFSET -0.01089 2.17963 0.04689
				CHANNELS 3 Zrotation Yrotation Xrotation
				JOINT lowerneck
				{
					OFFSET 0 0 0
					CHANNELS 3 Zrotation Yrotation Xrotation
					JOINT Neck
					{
						OFFSET 0.04686 1.69404 0.22159
						CHANNELS 3 Zrotation Yrotation Xrotation
						JOINT Head
						{
							OFFSET 0.00265 1.69305 -0.01513
							CHANNELS 3 Zrotation Yrotation Xrotation
							End Site
							{
								OFFSET -0.00415 1.80215 -0.03034
							}
						}
					}
				}
				JOINT LeftCollar
				{
					OFFSET 0 0 0
					CHANNELS 3 Zrotation Yrotation Xrotation
					JOINT LeftShoulder
					{
						OFFSET 3.67184 1.11724 -0.19002
CHANNELS 3 Zrotation Xrotation Yrotation
						JOINT LeftElbow
						{
OFFSET 0 -5.177140 -0.000000
CHANNELS 3 Zrotation Xrotation Yrotation
							JOINT LeftWrist
							{
OFFSET 0 -3.436790 -0.000000
CHANNELS 3 Zrotation Xrotation Yrotation
								JOINT lhand
								{
									OFFSET 0 0 0
CHANNELS 3 Zrotation Xrotation Yrotation
									JOINT LFingers
									{
OFFSET 0 -0.573120 -0.000000
CHANNELS 3 Zrotation Xrotation Yrotation
										End Site
										{
OFFSET 0 -0.462060 -0.000000
										}
									}
								}
								JOINT LThumb
								{
OFFSET 0 0.000000 0.000000
CHANNELS 3 Zrotation Xrotation Yrotation
									End Site
									{
OFFSET 0 -0.469120 0.469120
									}
								}
							}
						}
					}
				}
				JOINT RightCollar
				{
					OFFSET 0 0 0
					CHANNELS 3 Zrotation Yrotation Xrotation
					JOINT RightShoulder
					{
						OFFSET -3.59596 0.95831 -0.26050
CHANNELS 3 Zrotation Xrotation Yrotation
						JOINT RightElbow
						{
OFFSET 0 -5.239080 -0.000000
CHANNELS 3 Zrotation Xrotation Yrotation
							JOINT RightWrist
							{
OFFSET 0 -3.464850 -0.000000
CHANNELS 3 Zrotation Xrotation Yrotation
								JOINT rhand
								{
									OFFSET 0 0 0
CHANNELS 3 Zrotation Xrotation Yrotation
									JOINT RFingers
									{
OFFSET 0 -0.608750 -0.000000
CHANNELS 3 Zrotation Xrotation Yrotation
										End Site
										{
OFFSET 0 -0.490790 -0.000000
										}
									}
								}
								JOINT RThumb
								{
OFFSET 0 0.000000 0.000000
CHANNELS 3 Zrotation Xrotation Yrotation
									End Site
									{
OFFSET 0 -0.498290 0.498290
									}
								}
							}
						}
					}
				}
			}
		}
	}
}
MOTION
Frames: 4
Frame Time: 0.008333333333333333
36.202400 16.301100 9.747400 -172.801000 -45.300900 170.685000 0.000000 0.000000 0.000000 -14.516800 8.178100 2.814300 0.636000 5.102400 14.200800 0.719600 6.023300 -19.327000 0.028800 -1.095400 -3.011400 0.000000 0.000000 0.000000 25.263900 4.880700 -3.306700 -2.081500 -9.033900 25.901300 -1.087800 -6.745200 -23.228800 -0.014500 -0.778400 2.139300 2.573000 -0.098200 -0.871300 1.044000 -0.382800 4.301000 -0.385400 -0.160500 4.923500 0.827100 -3.661200 -2.809000 2.186300 -5.244000 7.746700 0.376900 -2.555200 3.000900 0.000000 -0.000000 0.000000 4.156400 -1.435200 -26.147300 12.750200 -20.920100 2.363300 16.861100 -12.669200 -12.403100 0.000000 0.000000 0.000000 -7.125000 0.000000 0.000000 -9.391600 42.727900 -0.531600 0.000000 -0.000000 0.000000 -13.238800 -25.202500 46.286400 -148.737700 -41.951100 -107.755200 -12.430100 -39.161100 -1.968900 0.000000 0.000000 0.000000 7.125000 0.000000 -0.000000 10.884000 27.904600 4.601600
36.202640 16.307642 9.778361 -172.740583 -45.241685 170.867516 0.000000 0.000000 0.000000 -14.576002 8.171712 2.469056 0.636774 5.105494 14.209623 0.717192 5.985035 -19.274545 0.026000 -1.040606 -2.860430 0.000000 0.000000 0.000000 25.187618 4.956601 -3.593085 -2.067490 -9.005280 25.811894 -1.069443 -6.728907 -23.063028 -0.014687 -0.782978 2.151839 2.602936 -0.018832 -0.703377 0.922791 -0.269310 4.346405 -0.521203 -0.101068 4.877588 0.688810 -3.736692 -2.845785 2.277429 -5.269826 6.485966 0.441207 -2.569674 2.588944 0.000000 0.000000 0.000000 4.406328 -1.412055 -26.349568 12.785570 -20.972245 2.375959 17.087670 -12.586412 -12.372278 0.000000 0.000000 0.000000 -7.125000 0.000000 0.000000 -9.183559 42.719467 -0.521498 0.000000 0.000000 0.000000 -15.167352 -18.489722 46.243896 -144.573120 -45.113436 -104.884618 -11.182392 -34.149655 -1.406136 0.000000 0.000000 0.000000 7.125000 0.000000 0.000000 11.894783 28.463167 4.884760
36.199506 16.313563 9.811570 -172.785835 -45.171117 171.134603 0.000000 0.000000 0.000000 -14.721584 8.220003 2.138276 0.632437 5.088276 14.160470 0.711137 5.912507 -19.160111 0.022511 -0.967863 -2.660456 0.000000 0.000000 0.000000 25.004976 4.989964 -3.951101 -2.066583 -9.003467 25.806122 -1.057817 -6.629885 -22.896552 -0.012653 -0.727409 1.999005 2.520626 0.004652 -0.464927 0.838940 -0.223281 4.332345 -0.559134 -0.081369 4.727688 0.563679 -3.714565 -3.046721 2.236959 -5.178411 5.478167 0.458730 -2.527992 2.291900 0.000000 0.000000 0.000000 4.562012 -1.304589 -26.249625 12.853273 -21.071839 2.400303 16.403252 -13.024712 -12.727433 0.000000 0.000000 0.000000 -7.125000 0.000000 0.000000 -9.870531 43.011829 -0.489303 0.000000 0.000000 0.000000 -16.564448 -12.024694 46.355878 -137.771664 -49.331944 -99.885193 -8.807607 -28.379505 -0.580916 0.000000 0.000000 0.000000 7.125000 0.000000 0.000000 13.812586 29.254237 5.445058
36.193654 16.317342 9.844945 -172.916461 -45.003553 171.408361 0.000000 0.000000 0.000000 -14.928701 8.316319 1.901118 0.623977 5.055108 14.065665 0.704898 5.919972 -19.101359 0.019258 -0.895519 -2.461408 0.000000 0.000000 0.000000 24.807064 5.206061 -4.238026 -2.082353 -9.035566 25.906720 -1.053737 -6.622753 -22.856840 -0.011319 -0.687130 1.888318 2.443010 0.001693 -0.290030 0.730045 -0.218712 4.384505 -0.627653 -0.081076 4.682371 0.569254 -3.599993 -3.236228 2.022076 -4.971417 4.532110 0.402236 -2.431684 2.006276 0.000000 0.000000 0.000000 4.719498 -1.291041 -26.139398 12.806286 -21.002722 2.383386 16.175687 -13.101308 -12.851766 0.000000 0.000000 0.000000 -7.125000 0.000000 0.000000 -10.101448 43.114785 -0.475104 0.000000 0.000000 0.000000 -17.348086 -6.503816 46.719244 -127.155693 -54.071743 -91.535893 -7.549633 -19.466056 0.757610 0.000000 0.000000 0.000000 7.125000 0.000000 0.000000 14.973398 30.539139 5.454863
